<svg width="11" height="11" viewBox="0 0 11 11" fill="none" xmlns="http://www.w3.org/2000/svg">
<path d="M5.47069 0.987672C5.61132 0.847221 5.80194 0.768332 6.00069 0.768332C6.19944 0.768332 6.39007 0.847221 6.53069 0.987672L10.7807 5.23767C10.9211 5.3783 11 5.56892 11 5.76767C11 5.96642 10.9211 6.15705 10.7807 6.29767L6.53069 10.5477C6.38854 10.6803 6.20045 10.7526 6.00605 10.7492C5.81166 10.7459 5.62617 10.6671 5.48869 10.5297C5.35122 10.3922 5.2725 10.2067 5.26915 10.0123C5.26579 9.81792 5.33805 9.62982 5.47069 9.48767L8.44069 6.51767L1.00069 6.51767C0.801778 6.51767 0.611013 6.43865 0.470361 6.298C0.329708 6.15735 0.25069 5.96658 0.25069 5.76767C0.25069 5.56876 0.329708 5.37799 0.470361 5.23734C0.611013 5.09669 0.801778 5.01767 1.00069 5.01767L8.44069 5.01767L5.47069 2.04767C5.33024 1.90705 5.25135 1.71642 5.25135 1.51767C5.25135 1.31892 5.33024 1.1283 5.47069 0.987672Z" fill="#24BEC8"/>
</svg>
